<svg width="17" height="22" viewBox="0 0 17 22" fill="none" xmlns="http://www.w3.org/2000/svg">
<path d="M16.594 18.9894L10.7906 2.02714C10.3735 0.835106 9.77831 0 8.35028 0C6.92182 0 6.32627 0.864894 5.9389 2.02705L0.135832 18.9893C0.0760946 19.1386 0.0474052 19.4966 0.0474052 19.6457C0.0474052 20.7781 1.02893 21.5535 2.18923 21.5535C2.9039 21.5535 3.85664 21.0166 4.15358 20.1528C4.15358 20.1528 8.23072 6.64783 8.35028 5.72371C8.46906 6.64783 12.5167 20.1528 12.5167 20.1528C12.8144 20.9871 13.7661 21.5535 14.54 21.5535C15.7599 21.5535 16.683 20.7781 16.683 19.6457C16.6831 19.4966 16.6536 19.1387 16.594 18.9894Z" fill="black"/>
</svg>
