<svg width="20" height="22" viewBox="0 0 20 22" fill="none" xmlns="http://www.w3.org/2000/svg">
<path d="M19.3941 19.6752C19.3941 20.6885 18.4409 21.5533 17.3401 21.5533C16.2098 21.5533 15.2272 20.6885 15.2272 19.6752V9.4194L11.8348 16.0972C11.4478 16.8714 10.7031 17.2294 9.87062 17.2294C9.06665 17.2294 8.32321 16.8714 7.936 16.0972L4.54363 9.4194V19.6753C4.54363 20.6886 3.56097 21.5534 2.40094 21.5534C1.26924 21.5534 0.377113 20.6886 0.377113 19.6753V1.96757C0.377113 0.835193 1.29907 0.000262063 2.5198 0.000262063C3.47176 0.000262063 4.21608 0.38794 4.60328 1.16321L9.90027 11.6855L15.1974 1.13351C15.6145 0.268614 16.4173 0 17.2509 0C18.4709 0 19.3941 0.894769 19.3941 1.96739V19.6752Z" fill="black"/>
</svg>
