<svg width="15" height="22" viewBox="0 0 15 22" fill="none" xmlns="http://www.w3.org/2000/svg">
<path d="M8.81026 13.1752C8.18498 12.9078 7.44171 12.6398 6.63775 12.3714C3.72169 11.4765 0.566431 10.4932 0.566431 6.17061C0.566431 2.32537 3.24502 0 7.47154 0C9.22729 0 13.4524 0.447341 13.4524 2.68335C13.4524 3.66669 12.6793 4.56137 11.37 4.56137C10.8341 4.56137 10.4172 4.38239 9.91109 4.23345C9.34607 4.02432 8.69141 3.78611 7.64997 3.78611C6.19107 3.78611 4.82217 4.29302 4.82217 6.05129C4.82217 7.36256 5.56667 7.81008 6.07203 8.04855C6.846 8.43632 7.5605 8.67488 8.2149 8.85387C11.1317 9.77755 14.316 10.7916 14.316 15.0233C14.316 19.1685 11.1616 21.5535 6.90539 21.5535C4.70305 21.5535 0.536346 20.7781 0.536346 18.6901C0.536346 17.7366 1.39988 16.812 2.50053 16.812C2.9473 16.812 3.42354 16.9611 3.98856 17.1702C4.70305 17.4088 5.65588 17.7668 6.93521 17.7668C8.98887 17.7668 10.03 16.8419 10.03 15.2025C10.0303 13.8611 9.34607 13.4141 8.81026 13.1752Z" fill="black"/>
</svg>
